# xmcd
#
# Track frame offsets: 
#        150
#        79260
#        118978
#        172541
#        221236
#        254117
#
# Disc length: 4052 seconds
#
# Revision: 0
# Processed by: cddbd v1.5.2PL0 Copyright (c) Steve Scherf et al.
# Submitted via: ExactAudioCopy v1.0b1
#
DISCID=550fd206
DTITLE=Steven Mayer - Liszt: Complete piano misuc v. 33
DYEAR=2009
DGENRE=Piano
TTITLE0=Tannhäuser. Overture, piano transcription     S 442
TTITLE1=Tannhäuser. O du, mein holder Abendstern, piano transcription 
TTITLE1=S 444 
TTITLE2=Pieces (2) from 'Tannhäuser' and 'Lohengrin', piano   Einzug d
TTITLE2=er Gäste auf der Wartburg  S 445
TTITLE3=Die Meistersinger von Nürnberg. Am stillen Herd, piano transcr
TTITLE3=iption     S 448
TTITLE4=Das Rheinhold. Valhalla, piano transcription     S 449
TTITLE5=Der Freischütz. Overture, piano transcription     S 575
EXTD=
EXTT0=
EXTT1=
EXTT2=
EXTT3=
EXTT4=
EXTT5=
PLAYORDER=
